<svg xmlns="http://www.w3.org/2000/svg" viewBox="0 0 50 50" width="50px" height="50px" baseProfile="basic">
  <path fill="#af87ce" d="M27,33h-4v-3c0-0.115-0.053-11.694-3.828-20.188l3.655-1.625C26.953,17.469,27,29.493,27,30V33z" />
  <path fill="#ffd217" d="M41.251,43.676c-3.109-5.982-9.337-9.698-16.253-9.698c-6.698,0-12.835,3.547-16.016,9.258 l-3.494-1.947c3.887-6.977,11.362-11.311,19.51-11.311c8.415,0,16.002,4.542,19.802,11.854L41.251,43.676z" />
  <path fill="#f68235" d="M24.998,29.978c-0.672,0-1.337,0.04-1.998,0.098v4.018c0.659-0.07,1.325-0.116,1.998-0.116 c0.676,0,1.342,0.046,2.002,0.115v-4.019C26.338,30.017,25.672,29.978,24.998,29.978z" />
  <path fill="#16d6fa" d="M1,47v-4c2.206,0,4-1.57,4-3.5h4C9,43.636,5.411,47,1,47z" />
  <path fill="#16d6fa" d="M13,47c-4.411,0-8-3.364-8-7.5h4c0,1.93,1.794,3.5,4,3.5s4-1.57,4-3.5h4C21,43.636,17.411,47,13,47z" />
  <path fill="#16d6fa" d="M25,47c-4.411,0-8-3.364-8-7.5h4c0,1.93,1.794,3.5,4,3.5s4-1.57,4-3.5h4C33,43.636,29.411,47,25,47z" />
  <path fill="#16d6fa" d="M37,47c-4.411,0-8-3.364-8-7.5h4c0,1.93,1.794,3.5,4,3.5s4-1.57,4-3.5h4C45,43.636,41.411,47,37,47z" />
  <path fill="#16d6fa" d="M49,47c-4.411,0-8-3.364-8-7.5h4c0,1.93,1.794,3.5,4,3.5V47z" />
  <path fill="#2dea55" d="M17,21h-4c0-7.263,2.599-12.361,6.982-13.787c4.029-3.569,11.848-4.211,16.432,0.373l-2.828,2.828 c-3.188-3.187-8.975-2.197-11.172,0l-0.392,0.392l-0.538,0.135C18.761,11.621,17,15.57,17,21z" />
  <path fill="#2dea55" d="M29.039,18.393c-0.507-2.534-2.274-8.33-7.71-7.42l-1.015,0.169l-0.728-0.728 c-1.014-1.014-2.534-1.542-4.173-1.451c-2.174,0.12-4.251,1.287-5.851,3.286L6.438,9.751c2.319-2.899,5.428-4.598,8.753-4.782 c2.411-0.127,4.703,0.566,6.456,1.938c5.593-0.448,9.888,3.57,11.313,10.7L29.039,18.393z" />
</svg>